<?xml version="1.0" encoding="UTF-8"?>
<svg width="41px" height="52px" viewBox="0 0 41 52" version="1.1" xmlns="http://www.w3.org/2000/svg" xmlns:xlink="http://www.w3.org/1999/xlink">
    <title>编组</title>
    <g id="页面-1" stroke="none" stroke-width="1" fill="none" fill-rule="evenodd">
        <g id="编组" transform="translate(3.000000, 3.000000)">
            <path d="M19.4820268,45.212876 C19.4141765,45.290234 19.3412092,45.3629783 19.2636141,45.4306212 C18.3030971,46.2679291 16.8436085,46.1704113 16.0036875,45.212876 C5.3345471,33.0487182 0,23.873985 0,17.6886303 C0,7.91948538 7.94376362,0 17.7428571,0 C27.5419507,0 35.4857143,7.91948538 35.4857143,17.6886303 C35.4857143,23.873985 30.1511672,33.0487182 19.4820268,45.21283 L19.4820268,45.212876 Z" id="路径" stroke="#B3160F" stroke-width="5" fill="#E94337"></path>
            <path d="M10,17.7103 C10,19.7552 10.8123,21.7163 12.2583,23.1623 C13.7043,24.6083 15.6654,25.4206 17.7103,25.4206 C19.7552,25.4206 21.7163,24.6083 23.1623,23.1623 C24.6083,21.7163 25.4206,19.7552 25.4206,17.7103 C25.4206,15.6654 24.6083,13.7043 23.1623,12.2583 C21.7163,10.8123 19.7552,10 17.7103,10 C15.6654,10 13.7043,10.8123 12.2583,12.2583 C10.8123,13.7043 10,15.6654 10,17.7103 Z" id="路径" fill="#B61510" fill-rule="nonzero"></path>
        </g>
    </g>
</svg>